<?xml version="1.0" encoding="UTF-8"?>
<svg id="Layer_1" xmlns="http://www.w3.org/2000/svg" version="1.1" viewBox="0 0 489.8 187.9">
  <defs>
    <style>
      .st0, .st1 {
        fill: #ffffff;
      }

      .st1 {
        fill-rule: evenodd;
      }
    </style>
  </defs>
  <path class="st0" d="M247.8,88.9c-3.5-.8-6.4-2.3-8.6-4.3-2.3-2-4-4.8-5-8.2s-1.6-7.8-1.6-13,.6-9.9,1.8-13.4c1.2-3.5,2.9-6.2,5.2-8.3s5.2-3.4,8.7-4.2c3.5-.8,7.5-1.2,12.1-1.2s8.6.4,12.1,1.2c3.5.8,6.4,2.2,8.7,4.2,2.3,2,4.1,4.8,5.2,8.3,1.2,3.5,1.8,8,1.8,13.4s-.5,9.6-1.6,13-2.8,6.2-5,8.2c-2.3,2-5.1,3.5-8.6,4.3s-7.7,1.3-12.5,1.3-8.9-.4-12.4-1.3h-.3ZM266.9,78c1.8-.3,3.2-1.1,4.3-2.2,1.1-1.1,1.8-2.6,2.3-4.6.4-2,.7-4.6.7-7.9s-.2-6.1-.7-8.2-1.2-3.6-2.3-4.7-2.5-1.8-4.3-2.1c-1.8-.3-4-.5-6.6-.5s-4.8.2-6.6.5c-1.8.3-3.2,1-4.3,2.1-1.1,1.1-1.8,2.6-2.3,4.6-.4,2-.7,4.7-.7,8.2s.2,5.9.7,7.9c.4,2,1.2,3.5,2.3,4.6,1.1,1.1,2.5,1.8,4.3,2.2,1.8.3,4,.5,6.6.5s4.9-.2,6.7-.5h-.1Z"/>
  <path class="st0" d="M353.4,78.2c-1,2.8-2.5,5.1-4.5,6.9-2,1.8-4.6,3.1-7.8,3.9-3.2.8-7.2,1.2-11.9,1.2s-8.6-.4-12-1.3c-3.4-.8-6.2-2.3-8.4-4.3-2.2-2-3.9-4.8-4.9-8.2s-1.6-7.8-1.6-13,.6-9.9,1.7-13.4c1.1-3.5,2.8-6.2,5-8.3s5-3.4,8.4-4.2c3.4-.8,7.3-1.2,11.8-1.2s8.2.4,11.3,1.1c3.1.7,5.7,1.9,7.7,3.6,2,1.6,3.6,3.8,4.7,6.5s1.8,5.9,2.1,9.8h-13.8c-.2-1.9-.5-3.5-1-4.8-.5-1.2-1.2-2.2-2.1-2.8-.9-.7-2.1-1.1-3.5-1.4-1.4-.2-3.2-.4-5.4-.4s-4.4.2-6.1.5-3,1-4,2.1-1.8,2.6-2.2,4.6c-.4,2-.7,4.7-.7,8.2s.2,5.9.7,7.9c.4,2,1.2,3.5,2.2,4.6s2.4,1.8,4,2.2c1.6.3,3.7.5,6.1.5s4-.1,5.4-.4c1.5-.3,2.7-.8,3.6-1.6s1.7-1.8,2.2-3.2.8-3.2,1-5.3h13.9c-.3,3.9-.9,7.3-1.9,10.1h0Z"/>
  <path class="st1" d="M400,114.6v18.7h14.8c2.2,0,4.6-.4,6.2-2.1,1.7-1.9,2-5.4,2-7.7s-.2-5.6-1.7-7.2c-1.5-1.5-4.7-1.7-6.6-1.7h-14.7,0ZM400,144.6v12.8h-12.6v-53.9h29c5.1,0,11,.9,14.8,4.7,3.8,3.9,4.6,10.1,4.6,15.3s-.9,11.7-4.8,15.9c-3.7,4.1-9.1,5.3-14.5,5.3h-16.5ZM344.1,114.6v42.7h-12.6v-53.9h27.5c5.1,0,11.3.8,15.3,4.3s4.9,9.1,4.9,14.1-1,9.4-4.3,13c-2.7,2.9-6.5,4.2-10.4,4.6l17.4,18h-16.6l-15.9-18.4v-7.8h8.3c2.2,0,5-.3,6.7-1.9,1.8-1.6,2-4.6,2-6.8s-.2-4.9-1.8-6.2c-1.6-1.4-5.1-1.6-7.1-1.6h-13.4ZM234,124.6h24.9v-21.2h12.6v53.9h-12.6v-21.1h-24.9v21.1h-12.6v-53.9h12.6v21.2h0ZM188.3,158.4c-6.2,0-14-.7-19.2-4.4-4.9-3.4-6.6-9.1-6.7-14.9h13.2c.2,2.4.8,5.1,3,6.4,2.6,1.6,6.6,1.9,9.6,1.9s7.7-.1,10.1-1.5c1.6-1,2.3-2.4,2.3-4.3s0-1.2-.3-1.7c-.2-.4-.5-.9-.8-1.2s-.9-.6-1.3-.8c-.6-.2-1.3-.5-2-.6-.8-.2-1.7-.4-2.6-.5l-15.3-3c-3.9-.8-8-2.2-10.8-5.1-2.6-2.8-3.6-6.4-3.6-10.2s2-8.9,6-11.9c4.9-3.7,12.5-4.4,18.5-4.4s13.1.7,18.1,4.2c4.8,3.4,6.4,9,6.7,14.6h-12.7c-.2-2.3-.9-4.9-3-6.1-2.4-1.5-6.3-1.7-9-1.7s-7.3.1-9.6,1.5c-1.4.8-2.2,1.9-2.2,3.6s.3,2.1,1.2,2.8c1.1,1,3.2,1.5,4.7,1.8l14.8,2.8c4.1.8,9,2.1,12.2,4.9,3.1,2.7,4.1,6.7,4.1,10.6s-1.6,9.8-5.9,13c-4.9,3.7-13.3,4.3-19.2,4.3h-.3ZM315,124.6h-21.9v-10h30.3v-11.2h-42.9v53.9h43v-11.2h-30.3v-10.3h17.1l4.7-11.2h0ZM286.2,63v-.4.4h0ZM489.4,157.3l-24.2-53.9h-10l-24.4,53.9h13.9l.8-1.8c3.1-7.4,6.2-14.7,9.3-22.1l5.3-12.7,7.8,18.8h-10.8l-4.3,10.2h19.3l3.1,7.6h14.2Z"/>
  <polygon class="st1" points="454.3 78.6 489.8 78.6 484.6 90.2 441.7 90.2 441.7 36.2 454.3 36.2 454.3 78.5 454.3 78.5 454.3 78.6"/>
  <polygon class="st1" points="180.4 78.6 215.9 78.6 210.7 90.2 167.8 90.2 167.8 36.2 180.4 36.2 180.4 78.5 180.4 78.5 180.4 78.6"/>
  <path class="st1" d="M382.8,57.7l-14.7,32.5h13.9l.8-1.8c3.1-7.4,6.2-14.7,9.3-22.1l5.3-12.7,7.8,18.8h-10.8l-4.3,10.2h19.3l3.1,7.6h14.1l-24.2-53.9h-10l-9.7,21.4h.1Z"/>
  <polygon class="st1" points="286.5 63.2 286.5 62.8 286.5 63.2 286.5 63.2"/>
  <path class="st1" d="M62.2,41.6l-4-15.3-20.8,1.9-.4-3.1,23.5-2.1h.6c1.5,10.3,2.9,20.6,4.4,30.9-1.1-4.1-2.2-8.2-3.2-12.3h0ZM98.3,129.9l-27.1,22.3-3.4-3c-1.2-1.1-1.9-1-3.6.3l-43.4,33.8,26.3-14.7-9.1,15.8,30.6-24.5-15.6,28,39.4-42.7.9,14.6,9.2-20,4.3,17.8,17.2,13.4-8.1-18.6,24.8,24.9-8.1-20,29.7,19.4-31.3-26.8c-1.2-1.1-1.9-1.1-3.2-.2l-3.5,2.4-20.8-22.3c-1.7-1.7-3.7-1.4-5.3,0h.1ZM68.1,74.8l-.5-10.9-13.7-2.1-2-.3-10-1.5.2-3,11.5,1.8,7.1,1.1,8.9,1.4,1.1.2-1.7,18.9-.4,4.7-.2-3.5-.3-6.9h0ZM37.8,53.6l-3.1-24.7-.4-3.4-2.8.6-5.5,1.2,1.5,11.9-4-1.8-3,3.7-1.5-12.3-7.8,1.7,3.5,22.1,23.2.8h0v.2h-.1ZM11.6,52.7l-5.6-.2c-2.5,0-3.3.8-3.5,3L0,93.5c0,2.3.5,3.6,3,4.2l21.2,3.3c-1.2,1.8-1,4.5-.8,5.6-4,1.5-7,5.2-7.8,9.6-1.5,8.2-5.1,21.8,6.4,24.5l24.7,6c5.4,1.5,10.2-.8,13.1-4.6l-.8,6.9,3-2.4c2.6-2.1,5.1-2.5,7.7-.1l1.3,1.2,24.9-20.5c2.8-2.4,6.4-2.7,9.2-.3.3.3.6.5.9.8l14.9,16c4.2-12.1,7.4-25,9.2-38l1.4.8c1.7.9,3.5-.2,4.2-1.8.3-.8.4-1.5.1-2.2,1-1,1.3-2.6.8-3.8.9-1.2.9-3.2-.1-4.4.6-1,.4-2.3-.2-3.4-1-1.7-3.1-2.2-4.7-1l-.3-9.8c0-1.7.8-3.2,1.6-4.7.6-1.1.2-1.9-.5-2.5l-10.3-9.7-2.7-6.2c3.4,1.5,12.8,4.3,12.9-.9,0-1,0-1.1.2-2.2l2-8.2c2.6-.4,3.1-.2,2.5-2.5l-1.9-7c7-1.5,11.3-4.6,11.6-9,.1-1.4-.4-1.7-1.5-2l-13.4-2.9c-1.5-9.3-11.2-12.5-19.6-11.4-.3,0-.6,0-.9.2-.4-1-1.4-1.8-2.5-1.8-1.8,0-3.1,1.7-2.6,3.4-7.7,3.5-12.7,11.8-8.4,24.6-1.5-1.1-3.4-1.3-5.1-.8l-.2-33.8c0-1.1,0-2.8-3-2.7h-30.6l-28.7,4.1c-.9,0-1.9.9-1.7,2.5l2.4,16.8-21.5,4.8c-.8.2-1.7,1-1.5,2.3l3.6,22.3h0ZM33.7,22.7l-2.3-16,8.9-1.2,1.3,11.8,3.5-4,4.5,2.4-1.2-11.4,9.7-1.3,2,17.2-25.4,2.2-1,.2h0ZM90,5.7h-28l-.3-3h28.2v3h.1ZM74.3,21.2l-6.6-3.5-.2-1.6,5.9-3.3.2,2.1-4.1,2,4.6,2.1.2,2.1h0ZM79.8,10.6l-2.5,12.9h-1.8l2.5-13h1.8ZM81.9,21.3l-.2-2.1,4.1-2-4.6-2.1-.2-2.1,6.6,3.5.2,1.6-5.9,3.3h0ZM25.9,56.3l12.3.6h.2c-.7,14.1-1.4,28.1-2.1,42.2-.8-.1-1.7-.2-2.5-.3-9.8-1.2-20.4-2.2-29.7-3.8-.8-.1-1-.8-1-1.4.8-12.1,1.6-24.2,2.4-36.4v-1.1c0-.6.4-.9,1-.8l4.9.3c1.4,0,2.8.1,4.1.2-.4,6-.8,12-1.1,18,1.8-1.4,3.5-2.8,5.2-4.1l5.1,4.1c.4-5.9.7-11.7,1.1-17.5h0ZM38.3,104.7l14.2,3.1,9,2c.2,1.8.5,3.5,1.1,5.1l-4-.9-28.8-6.9c-3.1-.8-2-4.7,1-4l5.2,1.1,2.4.5h0ZM29,110.5c10.8,2.9,21.7,5,32.6,7.7-4,0-10.5,3.8-10.1,14.1,0,1.8.7,3.5,1.6,4.4,1,1,3.6,1.5,5.4-1.9-1.2,6.7-8.2,10.1-12.5,5.8-4.1-4.1-1.7-17.1,2.1-21.6l-19.6-4.6c-1.5-.4-2.7-.2-3.6,1-.3.4-.6,1-.8,1.6-1.8,4.9-2.5,9.4-2.9,14.7,0,1.8,0,3.1,1.1,4.6-5.6-3-3.9-9.4-2.1-19.3.8-4.3,4.5-7.6,8.9-6.4h0ZM29.1,117.1l14.3,3.4c-2.1,4.8-3.3,11.3-2.4,16.5-5.6-1.3-10.8-2.6-16.3-3.9-.8-.2-1.2-1.1-1.2-1.9.4-4.4,1-8.6,2.4-12.8,0-.4.4-1.1.7-1.4.3-.2.7-.2,1.3-.1.4,0,.8.2,1.2.3h0ZM70.8,99.9c-.6,3.5-.6,8,.3,11.1.5-2.1,1.7-5,3.1-6.5-1.3,6.3,5.3,11.7,9.5,11.7-5.1-4.8-4.4-15.1,3-19.8-1.5-1.8-3.9-3.7-6.4-3.7,5-2.6,8.4-2.8,14.1-.6-1.1-4-3.1-6.6-6.9-7.9,5.1-1.7,8.6,0,12,3.1.2.2.5.5.8.7.9-5.6-.5-11.6-5.2-14.6,5.9.4,8.7,3.1,10,8,0-2-.2-3.9-.7-5.6-2.3-8.3-10-13.6-17.7-11.1-1.3.4-2.5,1.1-3.6,1.8-2.5,1.7-4.6,4.2-6.2,6.9.5-.2,1-.3,1.6-.4,2.6-.5,6.2-.4,9.1,2.3-5.4-.5-9.9,1.3-13.1,4.5s-1,1-1.4,1.6c-2.7,3.4-4.1,7.9-4.1,12.8.4-.9,1.2-1.9,2.2-2.8,1.4-1.4,3.2-2.4,4.6-2.3-2.7,2.7-4.2,6.8-4.8,10.9h-.2ZM114.9,91.8c-2.2-12.2-8.8-26.6-24.8-33-.2,0-.4-.2-.6-.2-.8-.3-1.7-.6-2.5-.9.4-.4,1.9-.9,4.1-1,4-.2,10.3,1.2,16.8,8.3,6.2,6.7,10.3,16.6,11.3,27.2l-2.7.6c-.6.1-1.4-.2-1.5-.9h-.1ZM84.1,114c-.8-4.8-.5-11,5.6-11.3l16.8-.8c3.4-.2,2.1-3.2,4.5-6.5.5-.7.9-1.2,2.3-1.5.5,1.2,1.1,1.7,2.8,1.5l6.1-.7c.7,0,1.5.2,1.9.8.5.7.3,1.9-.4,1.8-.9-.1-1.6-.1-2.5-.1s-.9.6-.9,1.1c1,0,3-.2,3.6.7.4.6.2,1.7-.5,1.7h-2.7c-.9,0-.8.4-.8,1.1,1,0,3.2,0,3.7.9.4.7,0,1.7-.9,1.5-.8-.3-1.2-.3-2-.3s-.7.3-.8.9c1.4.2,1.5.4,2.5,1,.3.2.5,1.7-.6,1.8-4.8.4-6.5,1-11.4,1.9l-26.2,4.8h0v-.3h-.1ZM117.3,110.7c1-.2,1.4-.4,2.4-.4.4,6.9-.4,12.4-1.9,18.9.4-5.6,1-13-.5-18.5h0ZM129.5,88.9c-1.2-7.8-2.5-13.6-6.1-20.5,2.2,2.4,3.7,4.3,6.4,6.9-1.5,3.9-.4,9.4-.3,13.6h0ZM131.1,94.9c-.8.3-1.8-.9-.9-1.5l2.8-2c1.6-1.2,2.8,1.6,1.8,2.1l-3.6,1.4h-.1ZM131.3,98c-.7-.1-1.2-1.3-.3-1.7l2.9-1.1c1.9-.7,2.1,2.2,1,2.4l-3.5.4h0ZM134.1,101.2l-2.8-.4c-.9-.1-1-1.7,0-1.8l2.4-.3c2-.2,1.4,2.7.3,2.5h.1ZM130.9,103.7c-.8-.4-.4-1.9.7-1.6l1.7.2c2,.5.4,3.1-.6,2.5l-1.8-1h0ZM122.3,80.7c-6.9-15.3-15.2-24-27.7-34,0,0-.2,0-.2-.2h.3c6.3,2.2,12.4,8,15.7,12.3-1.1-3.6-6.8-10.3-10.9-12.7,13.1,4.1,20.7,24.1,22.9,34.5h-.1ZM122,42.4l-2.7-1.2c-1.5-.6-1.5-1.4-.5-2.8l2-3.2c1.5-2.4,6.3.5,7.5,2l2.9-1.3,2.2,7-3.4.6c-.8,0-.9.7-.9,1.4l2,.2v2c-.2.9-1.4.8-2.2.9-.8,0-.7.2-.7.9l2.1.2c.6.3.5,1,.3,1.3h-.2c-1.4.5-.6,1.2-.8,3.3,0,.9-1.1,1-1.8.8-3.8-1.3-5.3-1.2-5.5-5.5l-.2-6.7h-.1ZM111.9,41.5c-5.8,0-7.4-6.6-5-8.1,1.7-1.1,4.7.3,3.6,3.1-.7-2.5-2.4-2.5-2.6-.6-.1,2.7,1.8,4.3,4,5.6h0ZM100.5,32.3c-3.1-16.8,14.7-21,23.3-15.7-9.6-3.3-24.1,1.3-23.3,15.7Z"/>
</svg>
